<svg xmlns="http://www.w3.org/2000/svg" viewBox="0 0 512 512" role="img" aria-labelledby="title desc">
  <title id="title">Suhas Remember Rocket icon</title>
  <desc id="desc">A smiling brain buddy inside a small rocket on a blue sky background.</desc>
  <defs>
    <linearGradient id="sky" x1="0" x2="1" y1="0" y2="1">
      <stop offset="0" stop-color="#36d4ff"/>
      <stop offset="1" stop-color="#0a67d9"/>
    </linearGradient>
    <linearGradient id="rocket" x1="0" x2="1" y1="0" y2="1">
      <stop offset="0" stop-color="#ffffff"/>
      <stop offset="1" stop-color="#eaf6ff"/>
    </linearGradient>
  </defs>
  <rect width="512" height="512" rx="118" fill="url(#sky)"/>
  <circle cx="105" cy="95" r="24" fill="#ffdc45"/>
  <circle cx="420" cy="134" r="16" fill="#ffdc45"/>
  <path d="M98 408c61-65 257-64 316 0H98z" fill="#fff" opacity=".86"/>
  <path d="M166 322c-24 24-56 35-96 32 11-40 31-68 61-84l35 52z" fill="#ff4f63"/>
  <path d="M346 322c24 24 56 35 96 32-11-40-31-68-61-84l-35 52z" fill="#ff4f63"/>
  <path d="M256 63c83 39 127 113 127 213 0 88-49 149-127 149S129 364 129 276c0-100 44-174 127-213z" fill="url(#rocket)"/>
  <path d="M150 294h212v72c-23 38-58 59-106 59s-83-21-106-59v-72z" fill="#ff4f63"/>
  <circle cx="256" cy="224" r="104" fill="#123a77"/>
  <circle cx="256" cy="224" r="86" fill="#6edaff"/>
  <path d="M206 212c0-30 22-54 50-54s50 24 50 54v23H206v-23z" fill="#31b4ff"/>
  <path d="M197 221c14-24 29-31 45-20 10-28 40-30 55 0 17-12 33-4 46 22-7 40-36 68-87 68s-83-29-59-70z" fill="#2aa8f4"/>
  <circle cx="224" cy="230" r="17" fill="#09265e"/>
  <circle cx="288" cy="230" r="17" fill="#09265e"/>
  <circle cx="230" cy="223" r="6" fill="#fff"/>
  <circle cx="294" cy="223" r="6" fill="#fff"/>
  <path d="M226 267c20 22 42 22 62 0" fill="none" stroke="#09265e" stroke-width="12" stroke-linecap="round"/>
  <circle cx="256" cy="340" r="25" fill="#238dff" stroke="#0a5fd1" stroke-width="8"/>
  <path d="M229 424h54l-27 68-27-68z" fill="#ffdc45"/>
  <path d="M239 424h34l-17 45-17-45z" fill="#ff9d2d"/>
</svg>
